<svg xmlns="http://www.w3.org/2000/svg" viewBox="0 0 512 512" width="31.88" height="32">
  <path fill="#4F46E5" d="M320 96H192L144 48H48C21.5 48 0 69.5 0 96v320c0 26.5 21.5 48 48 48h416c26.5 0 48-21.5 48-48V144c0-26.5-21.5-48-48-48h-80l-48-48z"/>
  <path fill="#FFFFFF" d="M240 192c0 8.84 7.16 16 16 16h160c8.84 0 16-7.16 16-16v-16c0-8.84-7.16-16-16-16H256c-8.84 0-16 7.16-16 16v16zM240 256c0 8.84 7.16 16 16 16h160c8.84 0 16-7.16 16-16v-16c0-8.84-7.16-16-16-16H256c-8.84 0-16 7.16-16 16v16zM240 320c0 8.84 7.16 16 16 16h160c8.84 0 16-7.16 16-16v-16c0-8.84-7.16-16-16-16H256c-8.84 0-16 7.16-16 16v16z"/>
  <circle fill="#FFFFFF" cx="144" cy="256" r="48"/>
  <path fill="#FFFFFF" d="M96 320c0 35.35 28.65 64 64 64s64-28.65 64-64l-48-16-48-16-32 48z"/>
</svg>